<svg width="20" height="21" viewBox="0 0 20 21" fill="none" xmlns="http://www.w3.org/2000/svg">
<path d="M19.0082 0.833496L11.2002 6.83348L12.6482 3.29749L19.0082 0.833496Z" fill="#E17726"/>
<path d="M0.992188 0.833496L8.73616 6.88948L7.35216 3.29749L0.992188 0.833496Z" fill="#E27625"/>
<path d="M16.2001 14.7451L14.1201 18.0411L18.5681 19.3131L19.8481 14.8171L16.2001 14.7451Z" fill="#E27625"/>
<path d="M0.160156 14.8171L1.43215 19.3131L5.87214 18.0411L3.80014 14.7451L0.160156 14.8171Z" fill="#E27625"/>
<path d="M5.63239 9.17736L4.40039 11.1133L8.80038 11.3214L8.65638 6.40137L5.63239 9.17736Z" fill="#E27625"/>
<path d="M14.3682 9.17721L11.2962 6.34521L11.2002 11.3212L15.6002 11.1132L14.3682 9.17721Z" fill="#E27625"/>
<path d="M5.87207 18.0411L8.53606 16.7051L6.24007 14.8491L5.87207 18.0411Z" fill="#E27625"/>
<path d="M11.4639 16.7051L14.1199 18.0411L13.7599 14.8491L11.4639 16.7051Z" fill="#E27625"/>
<path d="M14.1199 18.0411L11.4639 16.7051L11.6799 18.4971L11.6559 19.2571L14.1199 18.0411Z" fill="#D5BFB2"/>
<path d="M5.87207 18.0411L8.34406 19.2571L8.32806 18.4971L8.53606 16.7051L5.87207 18.0411Z" fill="#D5BFB2"/>
<path d="M5.8718 18.0411L6.2638 14.7451L3.7998 14.8171L5.8718 18.0411Z" fill="#CC6228"/>
<path d="M13.7363 14.7451L14.1203 18.0411L16.2003 14.8171L13.7363 14.7451Z" fill="#CC6228"/>
<path d="M15.6002 11.1133L11.2002 11.3213L11.6082 13.6653L12.2562 12.2493L13.8242 12.9933L15.6002 11.1133Z" fill="#CC6228"/>
<path d="M6.18438 12.9933L7.74438 12.2493L8.39238 13.6653L8.80038 11.3213L4.40039 11.1133L6.18438 12.9933Z" fill="#CC6228"/>
<path d="M4.40039 11.1133L6.24038 14.8493L6.18438 12.9933L4.40039 11.1133Z" fill="#E27525"/>
<path d="M13.8238 12.9933L13.7598 14.8493L15.5998 11.1133L13.8238 12.9933Z" fill="#E27525"/>
<path d="M8.7996 11.3213L8.3916 13.6653L8.9116 16.4333L9.0236 12.7853L8.7996 11.3213Z" fill="#E27525"/>
<path d="M11.2004 11.3213L10.9844 12.7773L11.0884 16.4333L11.6084 13.6653L11.2004 11.3213Z" fill="#E27525"/>
<path d="M11.6079 13.6652L11.0879 16.4332L11.4639 16.7052L13.7599 14.8492L13.8239 12.9932L11.6079 13.6652Z" fill="#F5841F"/>
<path d="M6.18359 12.9932L6.23959 14.8492L8.53559 16.7052L8.91159 16.4332L8.39159 13.6652L6.18359 12.9932Z" fill="#F5841F"/>
<path d="M11.6561 19.2575L11.6801 18.4975L11.4721 18.3215H8.52806L8.32806 18.4975L8.34406 19.2575L5.87207 18.0415L6.73607 18.7775L8.49606 20.0335H11.4961L13.2641 18.7775L14.12 18.0415L11.6561 19.2575Z" fill="#C0AC9D"/>
<path d="M11.4641 16.7051L11.0881 16.4331H8.91212L8.53612 16.7051L8.32812 18.4971L8.52812 18.3211H11.4721L11.6801 18.4971L11.4641 16.7051Z" fill="#161616"/>
<path d="M19.3438 7.22548L19.9998 3.91349L19.0078 0.833496L11.4639 6.63348L14.3679 9.17747L18.4718 10.4175L19.3758 9.32147L18.9838 9.02547L19.6078 8.43347L19.1278 8.04948L19.7518 7.55348L19.3438 7.22548Z" fill="#763E1A"/>
<path d="M0 3.91349L0.663999 7.22548L0.239999 7.55348L0.871997 8.04948L0.392 8.43347L1.016 9.02547L0.623997 9.32147L1.528 10.4175L5.63198 9.17747L8.53597 6.63348L0.991998 0.833496L0 3.91349Z" fill="#763E1A"/>
<path d="M18.4717 10.4172L14.3678 9.17725L15.5998 11.1132L13.7598 14.8492L16.1998 14.8172H19.8477L18.4717 10.4172Z" fill="#F5841F"/>
<path d="M5.63214 9.17725L1.52815 10.4172L0.160156 14.8172H3.80014L6.24014 14.8492L4.40014 11.1132L5.63214 9.17725Z" fill="#F5841F"/>
<path d="M11.1996 11.3213L11.4636 6.63335L12.6475 3.29736H7.35156L8.53556 6.63335L8.79956 11.3213L8.90356 12.7933L8.91156 16.4333H11.0876L11.0956 12.7933L11.1996 11.3213Z" fill="#F5841F"/>
<path d="M8.39159 13.6655L6.18359 12.9935L7.74359 12.2495L8.39159 13.6655Z" fill="#233447"/>
<path d="M11.6084 13.6655L12.2564 12.2495L13.8244 12.9935L11.6084 13.6655Z" fill="#233447"/>
</svg>
