<svg width="108" height="119" viewBox="0 0 108 119" fill="none" xmlns="http://www.w3.org/2000/svg">
<g clip-path="url(#clip0_3352_12780)">
<path d="M45.1143 107.283C45.3229 108.154 45.4265 108.87 45.4311 109.608C45.4301 113.181 37.97 118.758 33.4929 117.39C32.908 117.21 32.3929 116.728 31.9297 116.005C28.9152 111.195 28.0977 95.0143 21.0549 72.3139C12.9389 46.1561 1.43569 20.7895 1.43569 20.7895C1.43569 20.7895 18.1852 1.60956 25.2603 5.46623C25.2603 5.46623 32.3135 60.3026 37.6669 81.4224C41.9193 98.2474 44.3229 103.896 45.1349 107.302L45.1143 107.283Z" fill="url(#paint0_linear_3352_12780)"/>
<path d="M1.43497 20.7901C7.01044 33.579 26.6924 14.9403 25.2596 5.46678C23.8068 -4.00606 -1.67838 13.608 1.43497 20.7901Z" fill="#FF7A00"/>
<g style="mix-blend-mode:multiply" opacity="0.5">
<path d="M32.3669 116.591C35.24 120.148 40.0403 112.623 36.5552 92.4592C34.4772 80.3923 33.2459 69.1756 32.5918 62.1114C32.1549 57.3753 31.9797 54.5068 31.9797 54.5068C31.9797 54.5068 34.9395 83.4908 37.2192 92.6168C39.4989 101.743 41.6985 107.259 40.7967 112.558C39.8949 117.858 34.9197 118.921 32.3663 116.571L32.3669 116.591Z" fill="#B10053"/>
</g>
<g style="mix-blend-mode:multiply" opacity="0.5">
<path d="M41.7144 114.941C41.7144 114.941 44.115 109.093 42.3604 100.748C40.6057 92.403 38.4004 84.3125 38.4004 84.3125C38.4004 84.3125 42.6318 98.1042 44.0304 103.547C45.4291 108.989 41.7137 114.921 41.7137 114.921L41.7144 114.941Z" fill="#B10053"/>
</g>
<g style="mix-blend-mode:multiply" opacity="0.5">
<path d="M28.2043 101.858C32.1582 112.106 33.7393 91.8131 26.1633 55.4775C18.6065 19.1212 21.3661 21.0654 20.2944 15.8515C19.2228 10.6375 8.97497 9.22169 8.97497 9.22169C8.97497 9.22169 18.4745 8.54657 22.098 11.8593C25.7222 15.192 22.3082 33.19 26.8513 53.9575C31.3952 74.745 33.7846 105.784 31.9365 109.039C30.0884 112.294 28.2043 101.858 28.2043 101.858Z" fill="#B10053"/>
</g>
<g style="mix-blend-mode:multiply" opacity="0.3">
<path d="M25.2854 87.9214C26.1059 91.5868 27.9208 65.1188 21.8802 44.3412C15.8395 23.5636 17.6991 25.4579 16.2466 20.1967C14.794 14.9355 7.66106 11.7395 2.69031 15.3379C2.69031 15.3379 7.74077 12.3356 12.0881 15.2051C16.4355 18.0746 14.2841 23.6153 16.5359 33.1015C18.7876 42.5877 23.6007 70.2725 23.9405 75.6905C24.2803 81.1084 23.6063 81.2506 23.6063 81.2506L25.2654 87.9221L25.2854 87.9214Z" fill="#B10053"/>
</g>
<path d="M12.1094 15.207C12.1094 15.207 15.1415 16.9426 16.1581 19.9029C17.1748 22.8631 16.0824 27.2309 16.0822 29.6261C16.082 32.0214 15.4806 22.9394 14.7583 19.8296C14.0361 16.7198 12.11 15.227 12.11 15.227L12.1094 15.207Z" fill="#BB001A"/>
<path d="M8.97559 9.22089C8.97559 9.22089 15.1915 10.0522 17.6008 12.2675C20.01 14.4829 18.1513 10.2133 16.0523 9.52455C13.9534 8.83583 8.97559 9.22089 8.97559 9.22089Z" fill="#BB001A"/>
<path d="M30.2524 108.835C31.4028 110.414 32.4826 105.667 32.4176 97.1065C32.4176 97.1065 33.5878 107.687 32.5473 110.615C31.5068 113.544 30.2524 108.835 30.2524 108.835Z" fill="#FF4C00"/>
<path d="M38.8118 116.477C38.8118 116.477 41.3709 115.394 41.6199 110.275C41.8696 105.177 39.0327 99.1037 37.6726 93.6199C36.3125 88.136 35.4316 82.6562 35.4316 82.6562C35.4316 82.6562 36.1636 88.4604 37.2114 92.9566C38.2585 97.4328 40.8946 104.671 40.98 109.039C41.0653 113.408 38.8111 116.457 38.8111 116.457L38.8118 116.477Z" fill="#FF4C00"/>
<path d="M42.2608 113.946C42.2608 113.946 44.2251 111.186 44.3523 109.006C44.4794 106.826 44.2861 105.215 44.2861 105.215C44.2861 105.215 44.0158 110.294 42.2408 113.946L42.2608 113.946Z" fill="#FF4C00"/>
<g style="mix-blend-mode:multiply" opacity="0.5">
<path d="M26.1319 91.7256C25.9244 85.4849 30.9362 90.9272 31.2159 92.7343C31.4955 94.5414 31.23 82.9532 29.862 76.6313C28.494 70.3094 24.0083 83.6923 26.1319 91.7256Z" fill="#D42F55"/>
</g>
<g style="mix-blend-mode:multiply" opacity="0.5">
<path d="M32.2517 92.662C33.4145 97.0147 36.1998 100.335 36.836 99.6555C37.4721 98.9756 35.0913 83.2062 33.9201 76.7979C32.7482 70.3697 30.4703 71.5033 30.2934 72.1878C30.1165 72.8724 32.2523 92.682 32.2523 92.682L32.2517 92.662Z" fill="#D42F55"/>
</g>
<g style="mix-blend-mode:multiply" opacity="0.5">
<path d="M39.4245 99.4898C40.297 102.315 42.1507 103.431 42.4704 103.441C42.7894 103.43 40.526 90.5908 38.3106 83.9976C36.0952 77.4045 34.6076 70.4878 34.4142 70.6738C34.2207 70.8599 35.1928 89.291 39.4239 99.4699L39.4245 99.4898Z" fill="#D42F55"/>
</g>
<g style="mix-blend-mode:multiply" opacity="0.5">
<path d="M45.1144 107.283C45.323 108.155 45.4267 108.87 45.4312 109.608C45.4303 113.181 37.9701 118.758 33.493 117.39C32.9081 117.21 32.393 116.728 31.9298 116.005C31.3226 113.351 33.5709 116.13 35.9518 115.692C38.3732 115.272 40.202 112.636 40.4512 112.927C40.7004 113.219 39.5045 115.075 40.0349 115.416C40.5653 115.758 44.3556 111.48 44.3544 110.243C44.3539 109.025 45.03 107.146 45.03 107.146L45.1144 107.283Z" fill="#912774"/>
</g>
<g style="mix-blend-mode:multiply" opacity="0.5">
<path d="M21.2038 72.5883C21.2038 72.5883 27.1916 75.5629 31.5 75.4596C35.8091 75.3762 34.8068 68.0441 34.8068 68.0441L34.1617 64.852C34.1617 64.852 28.9047 73.0508 20.8597 71.2424L21.2038 72.5883Z" fill="#912774"/>
</g>
<g style="mix-blend-mode:soft-light" opacity="0.5">
<path d="M4.71371 24.5147C1.9156 22.6117 9.85093 17.5174 12.0457 17.4844C14.2404 17.4513 15.1447 21.8325 14.0791 22.8061C13.0135 23.7797 7.63411 26.4935 4.71371 24.5147Z" fill="white"/>
</g>
<g style="mix-blend-mode:soft-light" opacity="0.5">
<path d="M16.5165 20.4873C15.7123 20.3145 16.6705 15.5121 17.8544 14.4946C19.0382 13.4772 20.1747 15.2359 20.2483 16.8502C20.3219 18.4646 17.4816 20.6948 16.4966 20.488L16.5165 20.4873Z" fill="white"/>
</g>
<g style="mix-blend-mode:soft-light" opacity="0.5">
<path d="M23.3892 12.8552C22.7039 12.6584 23.1943 6.99326 23.901 5.43281C24.6276 3.8717 25.5033 7.39555 25.5033 7.39555C25.5033 7.39555 24.0539 11.835 23.3892 12.8552Z" fill="white"/>
</g>
<g style="mix-blend-mode:multiply">
<path d="M3.91889 26.4777C3.91889 26.4777 8.41231 31.3384 14.8072 30.3473C21.2021 29.3562 25.6385 18.0908 25.7964 14.4327C25.9542 10.7747 25.6905 8.84734 25.6905 8.84734L27.1152 19.878C27.1152 19.878 21.5829 30.0023 13.7496 32.1589C5.91619 34.3156 5.06587 29.1542 5.06587 29.1542L3.91889 26.4777Z" fill="#D42F55"/>
</g>
<path d="M88.8859 49.4577C86.0226 49.1936 83.6763 48.2736 81.826 47.2572C81.826 47.2572 81.826 47.2572 81.7648 47.2193C77.3317 44.7719 77.7009 48.6718 76.6504 51.9004C75.7635 54.6445 75.4872 59.544 68.7777 62.4817C68.6202 62.5468 68.4434 62.6326 68.2859 62.6977C67.0063 63.2392 65.5247 63.7077 63.8417 64.1229C47.743 68.0514 36.6517 67.0828 36.6517 67.0828C36.093 70.6943 34.2982 73.1492 32.0162 74.762C26.6526 78.5532 18.6541 77.5416 18.1318 75.6428C15.7716 67.0983 10.3923 54.2031 6.33326 44.9966C3.73958 39.0348 1.67616 34.6123 1.35253 33.8845C1.24421 33.6286 1.13656 33.3927 1.08872 33.1547C0.681408 31.7112 1.22255 30.5754 3.70591 29.0157C16.1491 46.0275 27.3818 18.8272 27.3818 18.8272L26.9467 15.9474C27.2618 15.2184 27.5809 14.6089 28.3427 13.5058C28.38 13.4247 28.4378 13.3629 28.4943 13.2612C30.571 10.2779 34.2117 6.90332 39.2758 7.91262C41.9889 8.46115 44.9692 10.438 47.96 12.7338C54.351 17.6312 57.3299 19.5681 62.5723 18.7351C67.4172 17.9553 68.2961 15.5707 69.1724 11.9088C69.7163 9.65512 71.9132 7.88544 73.2579 8.10022C76.5287 8.61025 80.325 12.3164 89.8701 29.8238C98.4164 45.508 102.226 38.2155 104.109 37.2148C104.325 37.0879 104.504 37.062 104.686 37.1557C106.315 38.0996 101.062 50.6297 88.9258 49.4563L88.8859 49.4577Z" fill="url(#paint1_linear_3352_12780)"/>
<path d="M46.6512 14.2144C46.1043 13.3743 45.748 12.8672 45.748 12.8672C45.748 12.8672 46.0265 13.4368 46.6512 14.2144Z" fill="#25283D"/>
<path d="M57.7937 17.3583C51.2194 17.7565 47.7202 14.5794 46.2401 12.6924C48.7403 16.4417 55.632 26.7916 56.0554 26.9173C56.5599 27.0801 69.0561 22.8722 69.0561 22.8722C69.0561 22.8722 71.6395 17.7163 71.7133 17.5343C71.7871 17.3522 70.9025 8.75865 70.9025 8.75865C70.9025 8.75865 67.0979 16.8094 57.8143 17.3776L57.7937 17.3583Z" fill="#25283D"/>
<path d="M20.8105 35.5155C10.9956 39.3149 3.04906 36.2657 1.08988 33.177C0.682564 31.7335 1.22371 30.5977 3.70707 29.0381C16.1502 46.0498 27.0333 19.7394 27.0333 19.7394C27.0333 19.7394 27.1423 19.4164 27.3637 18.8701C28.7069 19.6439 32.5776 30.9924 20.7912 35.5361L20.8105 35.5155Z" fill="#333C62"/>
<path d="M104.088 37.2177C103.154 39.145 101.996 40.94 100.632 41.9435C96.8127 44.7452 93.2408 43.5865 88.29 33.3716C83.3384 23.1369 76.701 7.82829 73.0371 9.90623C70.0978 11.5609 72.2016 17.7984 66.6701 18.9404C61.1386 20.0824 52.4022 19.0954 43.9042 13.8689C35.6507 8.79387 26.8053 15.9344 28.3216 13.5087C28.3588 13.4276 28.4166 13.3658 28.4732 13.2641C30.5499 10.2809 34.1906 6.90626 39.2546 7.91556C47.755 9.60903 58.5758 18.0518 65.082 13.8035C69.947 10.6277 69.0845 7.50266 72.9378 6.31665C75.2695 5.6004 77.2848 4.9745 89.8283 29.8074C97.8841 45.7475 102.185 38.1992 104.068 37.1984L104.088 37.2177Z" fill="#333C62"/>
<g style="mix-blend-mode:multiply" opacity="0.2">
<path d="M28.7348 28.9016C24.6526 33.4087 22.9575 35.2615 24.7854 50.0114C26.6338 64.7805 27.612 74.3889 29.4637 75.4451C31.3154 76.5014 31.9474 70.2926 31.7117 67.4062C30.2623 49.6297 28.7141 28.8824 28.7141 28.8824L28.7348 28.9016Z" fill="#963B66"/>
</g>
<g style="mix-blend-mode:soft-light">
<path d="M6.08801 36.4206C1.67475 34.5713 13.4171 61.7263 18.2329 66.6761C23.0493 71.6458 24.2387 53.9812 23.7443 45.1152C23.2499 36.2492 23.3702 36.2652 22.6903 35.6291C22.0104 34.993 15.4584 38.4644 6.06807 36.4213L6.08801 36.4206Z" fill="#8EA3DD"/>
</g>
<g style="mix-blend-mode:overlay" opacity="0.5">
<path d="M8.70335 37.0541C3.85334 35.878 7.43993 35.679 13.331 34.545C19.2221 33.411 22.7308 27.2662 24.4955 27.507C26.2602 27.7477 27.296 32.4838 22.0096 34.995C16.7432 37.5054 10.3338 37.459 8.68341 37.0548L8.70335 37.0541Z" fill="white"/>
</g>
<g style="mix-blend-mode:multiply" opacity="0.3">
<path d="M27.3819 18.8478C31.788 11.4756 41.305 9.52245 46.0781 15.5914C50.8513 21.6604 38.8924 30.0222 35.3056 39.8223C31.7181 49.6024 40.8402 63.3912 43.2149 65.1686C45.5896 66.9459 36.671 67.0828 36.671 67.0828C36.671 67.0828 30.9359 41.0853 30.0336 30.7559C29.1511 20.4257 27.362 18.8485 27.362 18.8485L27.3819 18.8478Z" fill="#963B66"/>
</g>
<g style="mix-blend-mode:multiply" opacity="0.3">
<path d="M36.6709 67.0827C36.6709 67.0827 30.4786 39.9428 30.0334 30.7558C29.5882 21.5688 27.3618 18.8484 27.3618 18.8484C27.3618 18.8484 31.8318 10.995 39.0713 11.9919C46.3109 12.9888 52.0482 21.6405 56.5117 34.0073C60.9752 46.3741 59.8573 60.7828 55.8616 64.289C51.8666 67.815 36.651 67.0834 36.651 67.0834L36.6709 67.0827Z" fill="#963B66"/>
</g>
<g style="mix-blend-mode:soft-light">
<path d="M36.6717 67.0818C36.5605 70.3391 33.032 74.0892 32.2491 73.3567C31.4655 72.6043 30.8177 54.9209 30.2477 44.9796C29.6776 35.0383 28.4248 26.7764 29.1027 26.7539C29.7807 26.7313 30.3695 35.4345 32.4913 48.2185C34.6138 61.0224 36.7424 65.0036 36.6717 67.0818Z" fill="#8EA3DD"/>
</g>
<g style="mix-blend-mode:multiply" opacity="0.5">
<path d="M32.0353 74.7631C26.6717 78.5543 18.6731 77.5427 18.1509 75.6439C15.7907 67.0994 10.4113 54.2042 6.35234 44.9977L6.18359 44.125C6.18359 44.125 14.4056 59.0615 16.4868 65.22C18.5886 71.3977 17.374 73.8932 19.3699 75.6832C21.7765 77.8188 29.1525 76.3161 32.0346 74.7432L32.0353 74.7631Z" fill="#963B66"/>
</g>
<g style="mix-blend-mode:multiply" opacity="0.5">
<path d="M68.7981 62.4806C68.6412 62.5657 68.4638 62.6315 68.3062 62.6966C67.0267 63.2381 65.5451 63.7066 63.8621 64.1218C47.7633 68.0503 36.672 67.0817 36.672 67.0817C36.672 67.0817 34.8536 58.0202 33.673 53.1293C32.4916 48.2183 38.5231 60.3134 42.6338 63.8695C48.0385 68.5202 68.7782 62.4813 68.7782 62.4813L68.7981 62.4806Z" fill="#963B66"/>
</g>
<g style="mix-blend-mode:multiply" opacity="0.5">
<path d="M26.9465 15.9692C30.1168 10.4545 31.725 13.7943 33.8886 13.423C36.0521 13.0516 30.5179 21.9184 30.2883 25.2195C30.0587 28.5206 30.9412 38.2519 30.9412 38.2519C30.9412 38.2519 29.553 27.1202 29.0654 23.8629C28.8356 22.3536 28.1878 19.6805 27.4015 18.8483C26.8846 17.109 26.9664 15.9685 26.9664 15.9685L26.9465 15.9692Z" fill="#963B66"/>
</g>
<path d="M59.3018 29.0656L68.6325 28.1167C68.8718 28.1087 69.0765 28.2616 69.1044 28.5002L69.6078 33.4337C69.6157 33.6729 69.4629 33.8776 69.2242 33.9055L67.3538 34.0875C67.1145 34.0954 66.9424 34.3207 66.9703 34.5593L67.1821 36.7279C67.896 43.7902 67.2676 46.5057 64.606 49.9077C62.3664 52.7965 55.9762 53.9272 49.6112 54.6178C49.3719 54.6258 49.1672 54.4729 49.1393 54.2343L48.9574 52.3641C48.9501 52.1448 49.083 51.9407 49.301 51.8936C50.6909 51.6677 55.896 51.5146 58.2751 48.6211C61.0757 45.1946 60.0418 40.5183 59.5969 36.1418L58.9381 29.5368C58.9302 29.2976 59.0831 29.0929 59.3018 29.0656Z" fill="url(#paint2_linear_3352_12780)"/>
<g style="mix-blend-mode:overlay">
<path d="M68.6329 28.1157C69.8838 29.1121 60.5783 29.0223 59.8206 29.6463C59.0628 30.2703 61.9491 42.0308 60.8121 45.6615C59.6752 49.2922 57.1978 51.6301 49.3014 51.8926C49.3014 51.8926 59.7535 51.0461 59.9974 44.5708C60.2412 38.0955 57.7195 29.4965 59.2822 29.0653C60.8449 28.6341 68.1418 27.7528 68.613 28.1164L68.6329 28.1157Z" fill="white"/>
</g>
<g style="mix-blend-mode:multiply" opacity="0.2">
<path d="M49.6303 54.6144C49.6303 54.6144 57.8524 53.9419 62.643 50.9283C67.4336 47.9146 67.1908 42.4136 66.9617 40.3254C66.7325 38.2372 66.1619 34.284 66.7469 33.8654C67.1178 33.6135 69.2234 33.9028 69.5832 32.1143C69.669 31.6923 69.5605 33.2329 69.607 33.4309C69.8435 34.5409 68.0363 34.2217 67.6521 34.6736C67.2679 35.1255 69.9994 45.8333 66.118 49.7748C60.2477 55.7385 49.6104 54.6151 49.6104 54.6151L49.6303 54.6144Z" fill="#963B66"/>
</g>
<g style="mix-blend-mode:multiply" opacity="0.2">
<path d="M49.6565 24.1369C46.9863 26.6808 51.431 55.8949 51.4404 62.1821C51.4505 68.4893 62.5237 56.3046 59.2501 41.9021C55.9766 27.4997 50.4881 23.3308 49.6565 24.1369Z" fill="#963B66"/>
</g>
<g style="mix-blend-mode:overlay" opacity="0.55">
<path d="M44.2996 11.3012C44.8946 9.98396 54.4108 16.4142 58.579 16.2956C62.7471 16.177 68.5088 12.9514 68.9713 14.2534C69.4338 15.5555 65.1522 20.668 56.4891 18.2813C47.8259 15.8946 43.797 12.3957 44.3189 11.2806L44.2996 11.3012Z" fill="white"/>
</g>
</g>
<defs>
<linearGradient id="paint0_linear_3352_12780" x1="41.7467" y1="116.021" x2="11.8688" y2="7.79353" gradientUnits="userSpaceOnUse">
<stop stop-color="#D32A00"/>
<stop offset="1" stop-color="#EC5C11"/>
</linearGradient>
<linearGradient id="paint1_linear_3352_12780" x1="45.8378" y1="23.4146" x2="62.0553" y2="57.7219" gradientUnits="userSpaceOnUse">
<stop stop-color="#25283D"/>
<stop offset="0.86" stop-color="#333C62"/>
</linearGradient>
<linearGradient id="paint2_linear_3352_12780" x1="67.931" y1="27.3859" x2="56.4809" y2="51.3252" gradientUnits="userSpaceOnUse">
<stop stop-color="#D55637"/>
<stop offset="1" stop-color="#E2A03A"/>
</linearGradient>
<clipPath id="clip0_3352_12780">
<rect width="103.747" height="115.447" fill="white" transform="translate(0 3.44922) rotate(-1.9042)"/>
</clipPath>
</defs>
</svg>
