<svg width="87" height="94" viewBox="0 0 87 94" fill="none" xmlns="http://www.w3.org/2000/svg">
<path d="M48.9741 0.000100593H85.3396C85.5567 -0.00229398 85.7723 0.0380845 85.9736 0.118898C86.175 0.199712 86.3581 0.319355 86.5126 0.4709C86.667 0.622446 86.7896 0.802883 86.8733 1.00176C86.9569 1.20064 87 1.41402 87 1.62953V20.6938C87 20.9094 86.9569 21.1227 86.8733 21.3216C86.7896 21.5205 86.667 21.7009 86.5126 21.8525C86.3581 22.004 86.175 22.1237 85.9736 22.2045C85.7723 22.2853 85.5567 22.3257 85.3396 22.3233H78.0409C77.8237 22.3233 77.6087 22.366 77.4082 22.449C77.2078 22.532 77.0259 22.6537 76.8732 22.8069C76.7205 22.9601 76.5999 23.1419 76.5184 23.3417C76.437 23.5415 76.3963 23.7553 76.3987 23.9708V32.3171C76.3987 59.601 72.9136 69.7396 61.3453 81.7793C51.5833 91.9361 26.5307 93.819 1.67882 94C1.23675 94 0.812497 93.827 0.498201 93.5186C0.183905 93.2101 0.00493855 92.7911 0.000133417 92.3525V85.0925C-0.00522815 84.6772 0.151188 84.276 0.436754 83.9724C0.72232 83.6688 1.11498 83.4863 1.53284 83.463C7.00683 83.1734 27.0781 84.5855 37.4239 74.4107C49.5579 62.3529 47.3683 44.0852 47.3683 27.1572V1.62953C47.3682 1.20358 47.5362 0.794522 47.8364 0.489964C48.1365 0.185407 48.5449 0.00956614 48.9741 0.000100593Z" fill="white" fill-opacity="0.35"/>
<mask id="mask0_3005_10265" style="mask-type:alpha" maskUnits="userSpaceOnUse" x="0" y="0" width="87" height="94">
<path d="M48.9741 0.000100593H85.3396C85.5567 -0.00229398 85.7723 0.0380845 85.9736 0.118898C86.175 0.199712 86.3581 0.319355 86.5126 0.4709C86.667 0.622446 86.7896 0.802883 86.8733 1.00176C86.9569 1.20064 87 1.41402 87 1.62953V20.6938C87 20.9094 86.9569 21.1227 86.8733 21.3216C86.7896 21.5205 86.667 21.7009 86.5126 21.8525C86.3581 22.004 86.175 22.1237 85.9736 22.2045C85.7723 22.2853 85.5567 22.3257 85.3396 22.3233H78.0409C77.8237 22.3233 77.6087 22.366 77.4082 22.449C77.2078 22.532 77.0259 22.6537 76.8732 22.8069C76.7205 22.9601 76.5999 23.1419 76.5184 23.3417C76.437 23.5415 76.3963 23.7553 76.3987 23.9708V32.3171C76.3987 59.601 72.9136 69.7396 61.3453 81.7793C51.5833 91.9361 26.5307 93.819 1.67882 94C1.23675 94 0.812497 93.827 0.498201 93.5186C0.183905 93.2101 0.00493855 92.7911 0.000133417 92.3525V85.0925C-0.00522815 84.6772 0.151188 84.276 0.436754 83.9724C0.72232 83.6688 1.11498 83.4863 1.53284 83.463C7.00683 83.1734 27.0781 84.5855 37.4239 74.4107C49.5579 62.3529 47.3683 44.0852 47.3683 27.1572V1.62953C47.3682 1.20358 47.5362 0.794522 47.8364 0.489964C48.1365 0.185407 48.5449 0.00956614 48.9741 0.000100593Z" fill="url(#paint0_linear_3005_10265)"/>
</mask>
<g mask="url(#mask0_3005_10265)">
<path d="M46.8467 54.1643C41.6915 54.1643 38.7831 50.8131 37.6055 48.4324C37.4111 48.0394 36.8214 47.9953 36.606 48.3772C35.2614 50.7609 32.9661 54.1643 28.4203 54.1643C24.7029 54.1643 21.6544 51.8883 20.0079 49.7551C19.6684 49.3153 18.0894 49.4301 17.8075 49.9088C16.5785 51.9961 14.0343 54.1643 9.36934 54.1643C2.62342 54.1643 0.312311 49.6303 0 47.3633V97.871C0 98.1472 0.223859 98.371 0.500001 98.371H96.0042C96.2803 98.371 96.5042 98.1472 96.5042 97.871V52.8529C96.5042 52.2442 94.1331 51.5525 93.6644 51.9408C92.143 53.2012 89.9317 54.1643 86.8226 54.1643C81.4477 54.1643 78.0952 51.2861 76.4805 48.9695C76.1888 48.5509 75.2658 48.6623 75.0615 49.1298C74.0622 51.4167 71.5793 54.1643 66.5223 54.1643C61.347 54.1643 58.7354 51.2866 57.6768 48.9701C57.4697 48.5167 56.6245 48.437 56.3533 48.8552C54.8389 51.1902 51.7032 54.1643 46.8467 54.1643Z" fill="url(#paint1_linear_3005_10265)"/>
</g>
<defs>
<linearGradient id="paint0_linear_3005_10265" x1="43.4962" y1="2.42242" x2="43.4962" y2="94.2732" gradientUnits="userSpaceOnUse">
<stop stop-color="#EF5525"/>
<stop offset="1" stop-color="#EF9D25"/>
</linearGradient>
<linearGradient id="paint1_linear_3005_10265" x1="0" y1="72.8672" x2="96.5042" y2="72.8672" gradientUnits="userSpaceOnUse">
<stop stop-color="#FFA620"/>
<stop offset="1" stop-color="#EF5B25"/>
</linearGradient>
</defs>
</svg>
